<?xml version="1.0" encoding="UTF-8"?>
<svg xmlns="http://www.w3.org/2000/svg" width="160" height="160" viewBox="0 0 160 160">
  <!-- Rish Tea baking-themed seamless tile: minimal line icons -->
  <defs>
    <style>
      .icon { fill: none; stroke: #7B4B2A; stroke-width: 1.6; stroke-linecap: round; stroke-linejoin: round; opacity: 0.14; }
    </style>
  </defs>

  <!-- Chef hat -->
  <g class="icon" transform="translate(20 24)">
    <path d="M22 26c-8 0-14-6-14-12 0-6 6-11 12-11 2 0 4 .5 6 1.5C28 2 30 1 32 1c6 0 12 5 12 11s-6 12-14 12H22Z"/>
    <path d="M14 26v9c0 2 2 3 4 3h18c2 0 4-1 4-3v-9"/>
  </g>

  <!-- Pie slice -->
  <g class="icon" transform="translate(96 18)">
    <path d="M2 28l22-12-10-10-12 22Z"/>
    <path d="M14 6c4 3 9 3 12 0"/>
  </g>

  <!-- Whisk -->
  <g class="icon" transform="translate(28 92)">
    <path d="M2 2l18 18"/>
    <ellipse cx="22" cy="22" rx="12" ry="6"/>
    <ellipse cx="22" cy="22" rx="8" ry="4"/>
    <path d="M10 10l4-4"/>
  </g>

  <!-- Bread loaf -->
  <g class="icon" transform="translate(96 96)">
    <rect x="2" y="8" width="36" height="18" rx="9" ry="9"/>
    <path d="M8 14h8M20 14h8M32 14h4"/>
  </g>

  <!-- Small accent leaves for balance (tea vibe) -->
  <g class="icon" transform="translate(60 52)">
    <path d="M0 8c6-6 14-6 20 0-6 6-14 6-20 0Z"/>
    <path d="M10 0c3 3 3 9 0 12-3-3-3-9 0-12Z"/>
  </g>

  <!-- Distribute subtle dots to soften empty areas -->
  <g class="icon">
    <circle cx="12" cy="148" r="1"/>
    <circle cx="148" cy="12" r="1"/>
    <circle cx="80" cy="12" r="1"/>
    <circle cx="12" cy="80" r="1"/>
    <circle cx="148" cy="80" r="1"/>
    <circle cx="80" cy="148" r="1"/>
  </g>
</svg>